# xmcd
#
# Track frame offsets: 
#        150
#        14510
#        30890
#        42861
#        61695
#        82327
#        97359
#        114488
#        128800
#        146346
#        156317
#        168233
#        183179
#        195612
#
# Disc length: 2827 seconds
#
# Revision: 0
# Processed by: cddbd v1.5.2PL0 Copyright (c) Steve Scherf et al.
# Submitted via: ExactAudioCopy v0.95b4
#
DISCID=b60b090e
DTITLE=Roosevelt Sykes - The Honeydripper's Ball
DYEAR=2007
DGENRE=Blues
TTITLE0=Shaking The Boogie
TTITLE1=Too Smart Too Soon
TTITLE2=Springfield Blues
TTITLE3=Honeysuckle Blues
TTITLE4=Tall Heavy Mama
TTITLE5=I Am In Love With A Lover
TTITLE6=New Orleans Jump
TTITLE7=Safety Pin Blues
TTITLE8=Man Is In Trouble
TTITLE9=Dangerous Man
TTITLE10=Roosevelt's Mood
TTITLE11=Blues Bass
TTITLE12=Driving Wheel
TTITLE13=Night Time Is The Right Time
EXTD=
EXTT0=
EXTT1=
EXTT2=
EXTT3=
EXTT4=
EXTT5=
EXTT6=
EXTT7=
EXTT8=
EXTT9=
EXTT10=
EXTT11=
EXTT12=
EXTT13=
PLAYORDER=
